<?xml version="1.0" encoding="UTF-8"?>
<svg viewBox="0 0 583.13629 586.93848" xmlns="http://www.w3.org/2000/svg">
 <path d="m465.71 36.62c-3.5391-0.75028-2.3323-4.4668-2.065-7.596l14.863-22.141c5.2145-7.7679 8.7396-6.6763 12.045 0.3764s-1.1273 12.097-5.6462 17.127-13.201 13.505-19.197 12.234z" fill="#18e018" stroke="#000" stroke-linecap="round" stroke-linejoin="round" stroke-width="3"/>
 <path d="m199.78 497.46c-4.6247 10.832-7.7951 22.55-9.36 30.992-1.6288 8.7857-7.9302 7.6201-12.011 0.98554s-0.24527-12.147 3.6771-17.655 11.592-14.909 17.694-14.322z" fill="#18e018" stroke="#000" stroke-linecap="round" stroke-linejoin="round" stroke-width="3"/>
 <path d="m144.76 547.47c-5.2048 9.4871-12.097 18.53-17.556 24.566-5.6821 6.2821-1.3839 14.492 6.5617 13.284s10.735-12.551 12.081-17.598 4.5486-11.871 3.4851-16.685c-0.41461-1.8768-1.1963-5.3479-4.5718-3.5668z" fill="#18e018" stroke="#000" stroke-linecap="round" stroke-linejoin="round" stroke-width="3"/>
 <path d="m149.86 96.442c-4.6846-9.5702-9.2162-20.044-16.072-25.561-6.5989-5.3108-12.885-6.777-14.78 1.0334s7.5423 14.693 11.701 17.853 9.259 8.711 14.117 9.5527c1.8938 0.32819 5.4021 0.92136 5.0343-2.8775z" fill="#18e018" stroke="#000" stroke-linecap="round" stroke-linejoin="round" stroke-width="3"/>
 <path d="m55.854 153.44s-20.577-19.046-30.921-24.436c-18.221-9.4955-24.212-3.0106-23.353 5.6494s16.36 11.941 22.874 14.41c2.8105 1.0653 18.919 5.7538 27.191 6.1888 2.4596 0.12933 4.2092-1.8113 4.2092-1.8113z" fill="#18e018" stroke="#000" stroke-linecap="round" stroke-linejoin="round" stroke-width="3"/>
 <path d="m112.62 444.81c-7.3942 3.1788-12.435 6.9397-17.923 11.281-5.3172 4.2056-14.627 25.015 4.8908 8.2175 2.693-3.4833 5.6735-5.546 13.032-19.498z" fill="#18e018" stroke="#000" stroke-linecap="round" stroke-linejoin="round" stroke-width="3"/>
 <path d="m154.03 242.06c-44.602-21.765-135.85-67.069 17.035-12.776 2.8713 1.0196 31.454 6.4614 2.1294-8.5174-5.6086-2.8648-12.53-6.1352-10.432-8.5258 2.8639-3.2642 0.35275-8.7176-2.837-9.5544-20.412-5.3543 4.3683-7.8121-6.8785-15.42-12.327-8.3385-20.78-20.176-30.649-28.075-62.269-49.843-51.703-82.832 12.919-14.262 5.7978 6.1521 13.303 3.3994 24.201 9.6383 6.0014 3.4355 13.401 14.494 20.417 22.257 3.3018 3.6534 7.736-4.4927 5.2242-8.8504-20.42-35.425-0.23297-23.452 14.13-7.2551 10.836 12.218 8.0774-1.4184 12.302-0.33121 5.1031 1.3133 8.5527 9.5784 9.5771 10.404 12.162 9.7985 16.579-1.0032 10.336-5.408-7.7437-5.4636-0.16242-7.93 2.1932-9.4973 2.3473-1.5618-25.763-30.973-13.393-32.514 13.166-1.6401 5.4304-8.6612 2.8644-11.01-27.394-25.073-30.107-73.556 9.5368-23.003 6.0556 7.722 10.868 18.845 17.863 31.432 1.9067 3.431-1.1131 18.329 11.643 7.6809 2.0365-1.7 1.9617-1.1766 3.0988-1.9594 2.5563-1.76 3.994 10.184 6.3066 13.297 2.3164 3.1178 7.6852 10.183 8.1659 5.823 0.36905-3.3472 5.0187-6.6005 6.1712-4.1588 16.768 35.528 10.444-2.6616 12.775-2.9991 7.836-1.1342-8.2601-32.299 8.792-18.972 1.2386 0.96808 6.6421-2.1409 6.8211-5.9636 3.1369-66.997 23.918-74.644 17.112-3.4097-0.22967 2.4037-2.4054 3.9552 4.7276 7.098 2.1885 0.96423 9.8466-0.49179 6.8934 6.2505-3.3923 7.7447 2.9138 29.239 8.9836 7.5898 1.3326-4.753 8.5558-23.664 11.201-6.2396 0.56241 3.7051 2.1977 25.894 9.3447 8.8078 55.577-132.87 80.316-123.58 21.893-4.9738-16.954 34.418 3.92 18.547 7.3348 13.851 6.0508-8.3214 28.298-46.566 28.4-28.449 5e-3 0.93686-2.9442 3.3981-2.7732 5.286 0.37884 4.1831 4.6306 7.6327 9.2853 0.1763 17.622-28.228 30.118-30.153 28.337-19.041-1.6793 10.48 8.7506-0.76321 13.475-6.4647 5.5606-6.7101 10.221-13.636 15.405-18.187 27.117-23.81 47.041-20.112 17.646 13.798-5.6256 6.4897-17.43 10.411-25.829 20.118-8.0206 9.2704-18.936 13.819-23.107 25.367-1.4751 4.0837-19.528 16.397-3.2918 12.685 2.5984-0.59418 2.425 3.6473 3.4406 5.0676 3.6279 5.0738 5.5011 5.8669 12.697-0.80756 41.1-38.119 67.386-9.9842-12.733 30.112-7.6662 3.8366-39.908 35.244-7.6848 17.291 2.7957-1.5576 12.048-1.3139 4.9645 7.2569-2.3829 2.8832-34.26 27.216 11.238 5.5293 4.414-2.104 6.4498-0.19092 7.9384 9.3412 2.0903 13.385 24.935-8.3866 31.066-10.365 44.476-14.354 63.403 16.63-20.601 21.962-20.706 1.3142-13.939 7.2766-6.4639 8.9212 24.988 5.4976-9.6409 11.914-13.005 12.727-15.972 3.8627-34.946-2.9274-33.519 8.5117 1.3362 10.717 13.244-4.6212 32.398 0.01892 3.4849 0.84418 22.146 14.402-13.334 12.096-7.0483-0.45819-11.83 8.9362 13.801 8.1604 12.986-0.39307 16.347 9.96-4.0767 7.419-5.8175-0.72376-26.372-1.438 13.248 10.374 184.5 55.004 82.376 57.653-9.0497 28.746-6.2903-1.9889-53.811-6.0297-10.374 10.648 8.0077 3.0745 18.195 11.337-4.0349 10.371-9.4002-0.4082-22.667 4.8853 1.2618 12 11.552 3.4348 30.07 14.684 1.5854 10.566-18.294-2.6446-12.564 9.0562 2.0262 13.933 45.417 15.181 78.171 56.603 15.507 34.053-5.1072-1.8379-11.154-5.5423-16.885-9.8582-17.549-13.218-27.324-15.58-22.647-5.9341 1.1685 2.41 13.358 10.683-7.2458 2.7874-26.54-10.17 1.7886 13.587 8.3335 20.714s51.241 40.418-7.5326 14.727c-3.3455-1.4623 30.288 27.201 5.4857 18.74-3.7778-1.2888-3.1156 5.5751-1.3892 7.2776 15.425 15.212 13.867 39.422-15.044 5.1893-4.5889-5.4336-4.0471-11.748-11.668-7.1053-4.7175 2.8738-8.8963-6.9155-12.705-12.744-13.039-19.953-41.65-53.372-12.07 0.95453 9.8398 18.072-4.4389 16.041-10.469 8.2349-29.465-38.143-22.237-11.488-13.394 9.4423 1.7437 4.1272-10.203 0.08484-10.742 3.6952-0.5538 3.7094 4.6748 23.692 13.711 34.95 20.314 25.309-5.4989 79.871-28.163 11.174-3.1522-9.5548-0.81903-27.041-4.6166-41.302-1.3386-5.0268 0.41327-13.446-2.813-18.544-5.6072-8.8593-17.679-13.73-10.285 18.362 0.83926 3.6424-1.826 2.5961-3.8171 1.0721-3.7352-2.859-14.218-6.7045-8.8692 2.7344 12.274 21.658-13.985 51.407-16.022 15.276-0.54648-9.6947 1.6472-11.296 1.3487-16.771-0.11719-2.149-2.5112-7.2397-1.3045-11.982 3.9461-15.509-8.1086-21.727-9.518-2.7822-2.223 29.88-12.652 1.6058-12.133 6.0844 5.3071 45.801-28.971 54.707-15.16-0.7641 0.85953-3.4521-2.1429-8.2637-1.2772-12.382 2.3168-11.021 2.2521-23.986 1.0738-34.711-2.0652-18.799-7.5512-30.716-9.6296-13.221-0.58469 4.9216-3.3482 11.796-5.0649 21.901-0.87219 5.1337-8.9783 5.3231-9.5359 1.2773-1.6139-11.709-5.7561-15.424-7.9656-5.8831-8.5829 37.061-34.498 77.057-23.99 15.818 0.62186-3.624 0.3215-7.8995 2.016-12.026 12.637-30.777-7.7125-5.8815-9.3373-1.7953-10.9 27.412-16.84 5.0695-8.5989-11.329 11.54-22.963 7.6772-15.907 8.2169-16.99 2.989-5.9965 1.8476-11.138-3.7527-3.9569-4.4956 5.7645-0.11246-6.6171-6.0778-1.1677-3.4796 3.1787-12.136 13.286-17.542 17.986-6.0051 5.221-8.1815 1.7256-4.6456-2.9384 5.2397-6.9114-1.5543-9.7569-5.199-0.34308-0.94533 2.4417-4.2391 4.1027-7.17 6.3792-22.348 17.359-16.51-1.194 2.6266-17.067 3.2092-2.6618 6.9559-5.2456 11.265-7.2477 1.3089-0.60809 8.0427-10.209 3.0779-9.2542-19.572 3.7649 1.8859-6.3 3.7984-8.8018 3.8483-5.0342 11.559-6.9223 13.85-7.7292 5.4676-1.9254 12.585-3.0076 17.419-5.7552 14.817-8.4219-30.46 4.172-18.268-8.9486 33.738-36.306-1.5602-18.557-23.453-2.2595-34.518 25.697-95.31 10.765-6.944-12.772 16.973-4.5211 24.304-9.8318 5.7016-9.6052-0.67805 8e-3 -5.8375-1.2189-10.337 1.2016-12.598 6.7777-29.587 2.4511 9.5099-8.9585 2.6356-0.76916 27.549-11.481-3.3501-8.8198-5.8505 0.50378-10.489 2.864-13.934 4.1643-18.802 7.0955-8.948-10.582 4.4484-14.185 6.311-1.6973 7.9327-17.719-6.2818-16.013-8.5086 1.0209-20.11-4.3535-29.819-4.7519-8.8517-0.36322-17.421 0.27429-23.161 0.7265-60.27 4.7482-45.022-41.218 37.645-25.702 11.119 2.087 40.684 13.03 31.036-6.5469-2.4974-5.0671 7.6169-7.2503 7.6169-11.593 0-3.1e-5 1.5e-5 -3.1e-5 0-3.1e-5z" fill="#18e018" stroke="#000" stroke-linecap="round" stroke-linejoin="round" stroke-width="3"/>
</svg>
