<?xml version="1.0" encoding="UTF-8"?>
<svg viewBox="0 0 586.5 666" xmlns="http://www.w3.org/2000/svg">
 <g fill="#fff" fill-rule="evenodd" stroke="#000" stroke-width="2">
  <path d="m338.5 182l0.5 2-1.5 1.25q-1.5 1.25-1.75 2t-5 7.5-4.25 8.25l0.5 1.5-6.5 4q-6.5 4-10.75 6.25l-4.25 2.25-1 1.5q-1 1.5-3.25 5l-2.25 3.5-1.5 0.5-1.5 0.5-7.5 1q-7.5 1-8.5 0l-1-1v1.5q0 1.5-6.5 1.5t-7.5-0.75-8.5-1.75l-7.5-1-0.5-0.25-0.5-0.25-2.75-3q-2.75-3-13-9.75l-10.25-6.75-1.25-3.25q-1.25-3.25-6-9.5t-6.25-9l-1.5-2.75 3-2.75q3-2.75 4.5-4.25l1.5-1.5 2-0.5q2-0.5 3.75-1.25t2.5 0.5 3.25 0.5l2.5-0.75v-1h3l1 1.25q1 1.25 3.5 2.25t11 3.25 10.5 2.5l2 0.25 6.5-0.5q6.5-0.5 13.75-0.25l7.25 0.25 0.25-1.5q0.25-1.5 6-1l5.75 0.5 3.75-1.75q3.75-1.75 7.25-4l3.5-2.25 1.5-0.25 1.5-0.25 5.5 1.5q5.5 1.5 9 4.5t4.5 3.25 1.5 2.25z"/>
  <path d="m205.75 183.5l1.25-0.5 1.5 2.75q1.5 2.75 6.25 9t6 9.5l1.25 3.25 10.25 6.75q10.25 6.75 13 9.75l2.75 3h-1l-2 4.75q-2 4.75-4.5 6.75t-6.25 7.75-7 10.75-5.25 6l-2 1-10-1.75q-10-1.75-12.25-3l-2.25-1.25h-8.75q-8.75 0-8.75-1t-13-3.75-15-3l-2-0.25 0.25-5 0.25-5 4.5-4.5q4.5-4.5 6.75-6.5l2.25-2 1.75-6 1.75-6 4.75-4.75q4.75-4.75 6.25-6.5l1.5-1.75 2.5-0.75 2.5-0.75 3-4 3-4 4-1q4-1 5.5-1.5l1.5-0.5 2.25-2.75q2.25-2.75 3.5-3.25z"/>
  <path d="m210 262.25l10 1.75h1l1.5 1.25q1.5 1.25 4.5 3.25l3 2 1.25 3.25q1.25 3.25 1.75 4.75l0.5 1.5 0.75 2q0.75 2 3.5 3.5t4.75 6 2.75 5.25l0.75 0.75 0.5 0.25 0.5 0.25 0.5 1 0.5 1-2.25 1.5q-2.25 1.5-5.75 7t-6.5 10-5.75 7.75-4 4.5-2.25 2.75-1.75 2l-0.75 0.5-0.5-0.75-0.5-0.75-7.5-1.5q-7.5-1.5-12.5-1l-5 0.5-2-0.25q-2-0.25-1.75-1.25t-5.5-1.75-11.25-2.25-12.5-3-8.25-1.25-7-1.25l-5.75-1.5 0.5-1.5 0.5-1.5-0.75-2.5q-0.75-2.5-0.75-3t-1.25-2.25l-1.25-1.75 0.25-1.75q0.25-1.75-0.25-2.75t0-2.5 0-6.5 1-13 1.25-11.5l-0.25-3.5 1.25-4q1.25-4 2.5-5.75t2.75-4l1.5-2.25h2l2 0.25q2 0.25 15 3t13 3.75 8.75 1h8.75l2.25 1.25q2.25 1.25 12.25 3z"/>
  <path d="m138 321.75l1-1.75 5.75 1.5q5.75 1.5 7 1.25t8.25 1.25 12.5 3 11.25 2.25 5.5 1.75 1.75 1.25l2 0.25 5-0.5q5-0.5 12.5 1l7.5 1.5 0.5 0.75 0.5 0.75-0.5 0.75-0.5 0.75 4 2q4 2 5.25 2.75l1.25 0.75 2 3q2 3 4 4.5t3.75 3.75 4.25 2.5l2.5 0.25 1.75 5q1.75 5 2.5 7.5l0.75 2.5-2 1.75q-2 1.75-4.75 4.5t-6.5 7.5-8 8.5-5 5.75l-0.75 2-17.5-1q-17.5-1-17.5 0t-11.5 1.25-11.75 0-6 1.25l-5.75 1.5-3-1.25-3-1.25-2.75-4.25q-2.75-4.25-5-5.25l-2.25-1-2.75-18.5q-2.75-18.5-3.5-20.75l-0.75-2.25-2-0.75-2-0.75-5-1-5-1 6-1.25 6-1.25 1.25-7.25 1.25-7.25 1.5-1.5q1.5-1.5 3.25-3.25t2.75-3.5z"/>
  <path d="m205.5 401l17.5 1 1.25 2.5 1.25 2.5 2.5-0.5q2.5-0.5 9 8t5.5 10-0.75 3.25l0.25 1.75 2 1.75 2 1.75-1 0.5-1 0.5-3.75 9q-3.75 9-4.25 10l-0.5 1-1.25 0.5q-1.25 0.5-2.25 0.5h-1l-9 2.75q-9 2.75-11.25 3.5l-2.25 0.75-1.75-1.25q-1.75-1.25-8.75-0.75t-15.5 2.25l-8.5 1.75-0.5-0.25-0.5-0.25-1-2.5q-1-2.5-7.75-12.75t-8-11.75l-1.25-1.5-2.25-6.5q-2.25-6.5-3.75-10l-1.5-3.5 0.5-2q0.5-2 4.25-4.25l3.75-2.25-1.5-0.75-1.5-0.75 5.75-1.5q5.75-1.5 6-1.25t11.75 0 11.5-1.25 17.5 0z"/>
  <path d="m222 457.75l9-2.75 1.5 1.25q1.5 1.25 4 2.75t4.75 2.75l2.25 1.25 2 5.5q2 5.5 2.75 9l0.75 3.5-1 1-1 1-3 2.75q-3 2.75-11.75 13.5t-9 12.25l-0.25 1.5-0.5 0.25-0.5 0.25h-4q-4 0-6.5-1t-8.5-2.75l-6-1.75-0.25-3q-0.25-3-6.25-12.5t-8.75-14.5-5.75-6l-3-1 0.5-3.5 0.5-3.5 8.5-1.75q8.5-1.75 15.5-2.25t8.75 0.75l1.75 1.25 2.25-0.75q2.25-0.75 11.25-3.5z"/>
  <path d="m244 485.75l3-2.75 11 1.75q11 1.75 21.75 1t13-1.75l2.25-1 1.5 0.25 1.5 0.25 4.25 4.75q4.25 4.75 6.75 7.25t7.5 9.5 5.25 10l0.25 3v2.5l-11.5 4.5q-11.5 4.5-23 6.25l-11.5 1.75-0.5 1.5-0.5 1.5-10-1.75q-10-1.75-10.75-1.5l-0.75 0.25-7.25-3.25q-7.25-3.25-9.5-3l-2.25 0.25-0.25-1q-0.25-1-2.75-2.25t-4.75-3.5l-2.25-2.25-0.75-2.5-0.75-2.5 0.25-1.5q0.25-1.5 9-12.25t11.75-13.5z"/>
  <path d="m309 455.5v-2.5l2.25 1q2.25 1 2.5 2l0.25 1 7.5 1q7.5 1 22.25 2.5t16 2.25 6.25 1.5l5 0.75 0.5 1.75 0.5 1.75-0.75 1.75-0.75 1.75-3.25 3.25q-3.25 3.25-7.75 8.75l-4.5 5.5-0.25 1.25q-0.25 1.25-2.75 5.75t-4.25 8l-1.75 3.5-1.5-0.25-1.5-0.25-2.5 1.5q-2.5 1.5-4.25 4.25l-1.75 2.75-4.75-0.5-4.75-0.5-1.5 1.5-1.5 1.5-0.25-3q-0.25-3-5.25-10t-7.5-9.5-6.75-7.25l-4.25-4.75-1.5-0.25-1.5-0.25-0.25-2q-0.25-2 3.75-10.5t7.25-10.5l3.25-2v-2.5z"/>
  <path d="m379 402.75l8 1.25-1 0.75-1 0.75 5.25 1.75 5.25 1.75 0.5 1q0.5 1-1 8.5t-2.25 8.25l-0.75 0.75v3.5l-7.5 11.75q-7.5 11.75-10.25 16.5t-3 5.25l-0.25 0.5-5-0.75q-5-0.75-6.25-1.5t-16-2.25-22.25-2.5l-7.5-1-0.25-1q-0.25-1-2.5-2l-2.25-1-1.75-2.5q-1.75-2.5-3.5-8.5l-1.75-6h-2l0.25-2.5q0.25-2.5 0.75-3t1-4.5 7.75-13.25l7.25-9.25 1.5-0.25 1.5-0.25v2l8.5-1.75q8.5-1.75 25.5-1.75t25 1.25z"/>
  <path d="m396 322.75l9-1.75 0.5 0.25 0.5 0.25 4.25 3.75 4.25 3.75-1.25 2.5q-1.25 2.5-1 6.5t0.5 14l0.25 10-1.75 5.5q-1.75 5.5-1.5 8.5t0 6l-0.25 3-2.5 4q-2.5 4-5.25 8.75l-2.75 4.75-5 1q-5 1-6 0.75l-1-0.25-8-1.25q-8-1.25-25-1.25t-25.5 1.75l-8.5 1.75v-2l-0.25-1.5q-0.25-1.5-5-7.75t-9-11.5-8.5-6.75l-4.25-1.5v-4l0.5-0.25 0.5-0.25 1.75-2.75q1.75-2.75 4.5-7.5l2.75-4.75 2-1q2-1 4.25-3.25t4.5-5.5l2.25-3.25 2.5-1.25 2.5-1.25 3.25-1.5q3.25-1.5 3-2.25l-0.25-0.75 13-1 13-1 0.5-1.5q0.5-1.5 17-4t25.5-4.25z"/>
  <path d="m390.5 251.25l6.5-2.25 1 0.5 1 0.5 3.5 12 3.5 12h1l2 10.25 2 10.25-2.5 2.75q-2.5 2.75-2.5 4t-0.5 1.75l-0.5 0.5 1.25 2.75q1.25 2.75 1.5 5.25t2 3.5 1.5 2.5l-0.25 1.5-3 1-3 1-9 1.75q-9 1.75-25.5 4.25t-17 4l-0.5 1.5-13 1-13 1 0.25 0.75q0.25 0.75-3 2.25l-3.25 1.5-0.75-4q-0.75-4-2.75-6.5t-5.5-8.5-7.5-12l-4-6-1.75-1-1.75-1 1.5-1.25 1.5-1.25 1.75-1.75q1.75-1.75 2.25-4.25t3-5 3.75-4l1.25-1.5-0.25-1.5q-0.25-1.5 1.5-6.5l1.75-5 2.5-0.25q2.5-0.25 3-1l0.5-0.75 2-1 2-1 5.5-0.25q5.5-0.25 12.5-1.75t7.5-2l0.5-0.5 9-1.5q9-1.5 11-2.5t7.5-1.5 12-2.75z"/>
  <path d="m337.5 185.25l1.5-1.25h2l0.5 1.75q0.5 1.75 2 3l1.5 1.25 3.75 1q3.75 1 6.5 3.25t6.5 5.5l3.75 3.25 0.75-0.5 0.75-0.5 2.75 2.5q2.75 2.5 6 6.25t4 4.5 1.25 1.75l0.5 1 2.75 6.25q2.75 6.25 7.75 11.25l5 5-0.25 2.25q-0.25 2.25 0 4.25l0.25 2-6.5 2.25q-6.5 2.25-12 2.75t-7.5 1.5-11 2.5l-9 1.5-0.5 0.5q-0.5 0.5-7.5 2t-12.5 1.75l-5.5 0.25-2 1-2 1-0.25-2.5-0.25-2.5-2.5-2.5q-2.5-2.5-5.75-9.5l-3.25-7-3.5-3.25q-3.5-3.25-6.25-5.5l-2.75-2.25-0.25-1.5-0.25-1.5 1.5-0.5 1.5-0.5 2.25-3.5q2.25-3.5 3.25-5l1-1.5 4.25-2.25q4.25-2.25 10.75-6.25l6.5-4-0.5-1.5q-0.5-1.5 4.25-8.25t5-7.5 1.75-2z"/>
  <path d="m247.5 227h0.5l4 1.25q4 1.25 11 2.25t7.5 1 4.5-1.75l4-1.75 1 1q1 1 8.5 0l7.5-1 0.25 1.5 0.25 1.5 2.75 2.25q2.75 2.25 6.25 5.5l3.5 3.25 3.25 7q3.25 7 5.75 9.5l2.5 2.5 0.25 2.5 0.25 2.5-0.5 0.75q-0.5 0.75-3 1l-2.5 0.25-1.75 5q-1.75 5-1.5 6.5l0.25 1.5-1.25 1.5q-1.25 1.5-3.75 4t-3 5-2.25 4.25l-1.75 1.75-1.5 1.25-1.5 1.25-2 0.25q-2 0.25-2.5-0.5t-15 0-21.5-0.75-8-1.25l-1 0.25-0.5-0.25-0.5-0.25-0.75-0.75q-0.75-0.75-2.75-5.25t-4.75-6-3.5-3.5l-0.75-2-0.5-1.5q-0.5-1.5-1.75-4.75l-1.25-3.25-3-2q-3-2-4.5-3.25l-1.5-1.25h-1l2-1q2-1 5.25-6t7-10.75 6.25-7.75 4.5-6.75l2-4.75h0.5z"/>
  <path d="m295 300.25l2-0.25 1.75 1 1.75 1 4 6q4 6 7.5 12t5.5 8.5 2.75 6.5l0.75 4-2.5 1.25-2.5 1.25-2.25 3.25q-2.25 3.25-4.5 5.5t-4.25 3.25l-2 1-2.75 4.75q-2.75 4.75-4.5 7.5l-1.75 2.75-0.5 0.25-0.5 0.25-11 0.75q-11 0.75-11.5 0.75t-10.5 0.25l-10 0.25-0.75-2.5q-0.75-2.5-2.5-7.5l-1.75-5-2.5-0.25q-2.5-0.25-4.25-2.5t-3.75-3.75-4-4.5l-2-3-1.25-0.75q-1.25-0.75-5.25-2.75l-4-2 0.5-0.75 0.5-0.75 0.75-0.5q0.75-0.5 1.75-2t2.25-2.75 4-4.5 5.75-7.75 6.5-10 5.75-7l2.25-1.5-0.5-1-0.5-1v-1l8 1.75q8 1.75 22.5 1t15 0 2.5 0.5z"/>
  <path d="m282 370.75l11-0.75v4l4.25 1.5q4.25 1.5 8.5 6.75t9 11.5 5 7.75l0.25 1.5-1.5 0.25-1.5 0.25-7.25 9.25q-7.25 9.25-7.75 13.25t-1 4.5-0.75 3l-0.25 2.5-0.75 0.5-0.75 0.5-12.25 0.25q-12.25 0.25-18.25-0.75t-11.5-2-8-1.25l-2.5-0.25-2-1.75-2-1.75-0.25-1.75q-0.25-1.75 0.75-3.25t-5.5-10-9-8l-2.5 0.5-1.25-2.5-1.25-2.5 0.75-2q0.75-2 5-5.75t8-8.5 6.5-7.5 4.75-4.5l2-1.75 10-0.25q10-0.25 10.5-0.25t11.5-0.75z"/>
  <path d="m299.25 436.5l0.75-0.5h2l1.75 6q1.75 6 3.5 8.5l1.75 2.5v5l-3.25 2q-3.25 2-7.25 10.5t-3.75 10.5l0.25 2-2.25 1q-2.25 1-13 1.75t-21.75-1l-11-1.75 1-1 1-1-0.75-3.5q-0.75-3.5-2.75-9l-2-5.5-2.25-1.25q-2.25-1.25-4.75-2.75t-4-2.75l-1.5-1.25h1q1 0 2.25-0.5l1.25-0.5 0.5-1q0.5-1 4.25-10l3.75-9 1-0.5 1-0.5 2.5 0.25q2.5 0.25 8 1.25t11.5 2 18.25 0.75l12.25-0.25 0.75-0.5z"/>
  <path d="m187 167.75l-1 1.25-0.5 0.25-0.5 0.25-3.75 4.25q-3.75 4.25-7.5 6.5t-6.25 4.5l-2.5 2.25-2.75 2.5q-2.75 2.5-4 3.75t-3.25 3.25-10.25 12.25-11 14.25l-2.75 4-4.5 0.5-4.5 0.5-3.75 3.5q-3.75 3.5-8.5 5.75t-7 4.5-14.5 14.5-16 15l-3.75 2.75-1.5 4q-1.5 4-3.75 6t-4 5.5-4 6.75-5 7-6 5-5 1.5l-1.75 0.25-0.25 3.5q-0.25 3.5-4.5 9.5t-7 6.5-4.25 4.5-4.5 5.25l-3 1.25-1.75-0.75q-1.75-0.75-2.25-18.25t1.5-29 6-26 6-18 4.25-5l2.25-1.5-0.25-2.5q-0.25-2.5 3.75-10t6-11 7.75-10.75 8.75-10.75 5.25-6.25 4-4.5 4.5-4.5 9.25-7.75 17.75-12.25 21.75-11.25 30-5.5 26.5 2l7 3.5 1.5 5.25q1.5 5.25 3 8l1.5 2.75-1 1.25z"/>
  <path d="m414 227.5v-0.5l-0.25-0.5q-0.25-0.5-3.25-5t-8.75-11.75-11-12.5-7.25-7.25-4.25-3l-2.25-1-1.5 0.5-1.5 0.5-3.75-5.5q-3.75-5.5-8-9l-4.25-3.5-1.25-1.5-1.25-1.5 1.5-3.5q1.5-3.5 3.25-7.75l1.75-4.25 3-2q3-2 13-3.5t11-2 19 2.75 19.5 4 12.25 6.5 11 6.75 3.75 2.75 8.75 6 6.25 6.75l1 2.5 1.25 0.25q1.25 0.25 5.5 4t7 7.75l2.75 4 2-0.5q2-0.5 3 1.75t3 4.25 5.25 6.25 3 6.5l-0.25 2.25 1.75-0.25q1.75-0.25 4.25 4.25t5 9 7 18.5 4.25 15l-0.25 1h1q1 0 1 7.25v7.25l2-0.75q2-0.75 3.75 8.25t2.75 18.5 0.25 22l-0.75 12.5-3.75-0.5q-3.75-0.5-5.5-2.5t-2.5-3.5-4.75-4.5-6.25-7-3.75-5.25-4.75-3l-3.25-1.75-2-3.5q-2-3.5-3.75-6.5t-3.5-4.5-4.5-5.75-4-5l-1.25-0.75-2-6-2-6-1.25 0.25q-1.25 0.25-3.25-1.75t-5.25-5.25-6-6-4-4-1-2.25-3-3-8.5-8l-5.25-6-6.5-2.75q-6.5-2.75-8.5-4.75l-2-2-4.5-0.25-4.5-0.25v-0.5z"/>
  <path d="m272.5 555.5l1.5-0.5 1.5 6.25 1.5 6.25 4.5-0.25 4.5-0.25h2l-2.75 7.5q-2.75 7.5-4.5 19.5t-2.75 11.75-2.5 5-2.5 5l-1-0.25-1-0.5q-1-0.5-3.75-8.25t-5.75-18.25-3.25-10.25-1.75-5.5l-1.5-5.75h1l1.5-0.25q1.5-0.25 6.5 0l5 0.25 1-5.5q1-5.5 2.5-6z"/>
  <path d="m155.5 498.5l5.5 3.5 0.25 0.5 0.25 0.5 3 2q3 2 4.25 3.25t4 3 3 3.75l0.25 2 5 1 5 1h1l2 4q2 4 2.75 5t0.75 2v1l2.75 1.25q2.75 1.25 4 2.5t1.5 2.25l0.25 1h2l1.75 2 1.75 2-0.5 3q-0.5 3 0 5.5t2 14.5l1.5 12-4 3-4 3 1 2.5q1 2.5-1.25 6.25t-2.75 5.25l-0.5 1.5-5 0.5q-5 0.5-8.5 1.5l-3.5 1-0.25 0.25q-0.25 0.25-4 4.5l-3.75 4.25-8 1-8 1-5.75-4.25q-5.75-4.25-8-5.75l-2.25-1.5-2.25-5q-2.25-5-1.75-22t3-34.5 6.25-31l3.75-13.5 5.5 3.5z"/>
  <path d="m337.5 544l0.5-5 1-0.75q1-0.75 6-3.5l5-2.75 0.25-2q0.25-2 2.25-3.5t4.25-4.5l2.25-3h8l0.75-3q0.75-3 2-4.5t4.75-3l3.5-1.5 1.5-3.25 1.5-3.25 1-0.25 1-0.25 1.75 0.5q1.75 0.5 6-2.75l4.25-3.25 0.75 2.75q0.75 2.75 5.25 20.75t6.5 38 0.5 30.5-4.75 13.75-8.75 7.75l-5.5 4.5-7-0.5q-7-0.5-8.75-1.25l-1.75-0.75-3.5-3q-3.5-3-5.25-4.25t-3-4.5l-1.25-3.25-1.25 1.75q-1.25 1.75-0.75 2.25t-3.5 0.5h-4l-1.25-2.25q-1.25-2.25-3.5-4.25t-1.25-5.75l1-3.75-3.75-1.75q-3.75-1.75-4.25-2.75t1-12 2.25-14.25l0.75-3.25-1.5-0.25q-1.5-0.25-1-5.25z"/>
  <path d="m344.5 507.75l1.5 0.25 1 0.75q1 0.75 3 2.5t3.5 3.5 3.5 3l2 1.25-2.25 3q-2.25 3-4.25 4.5t-2.25 3.5l-0.25 2-5 2.75q-5 2.75-6 3.5l-1 0.75-1-0.25q-1-0.25-7.75 4.5t-11.5 3.75l-4.75-1 0.25 1q0.25 1-0.5 3.5t-8.25 6.25-11.5 5.75-5.5 3.25l-1.5 1.25-4.5 0.25-4.5 0.25-1.5-6.25-1.5-6.25 0.25-4q0.25-4 1-9.5l0.75-5.5h-1l0.5-1.5 0.5-1.5 11.5-1.75q11.5-1.75 23-6.25l11.5-4.5v-2.5l1.5-1.5 1.5-1.5 4.75 0.5 4.75 0.5 1.75-2.75q1.75-2.75 4.25-4.25l2.5-1.5 1.5 0.25z"/>
  <path d="m384.5 442.75l7.5-11.75 1 0.25 1 0.25 0.75 1.75q0.75 1.75 1 3.25t-1.25 1.75l-1.5 0.25 5.5 1.75 5.5 1.75 3 0.5 3 0.5-0.75 4.5q-0.75 4.5-6 15.25t-6.5 12-1.75 3.25-1.75 3.75-3 3l-1.75 1.25-0.5 1q-0.5 1-1.5 5t-2.25 6l-1.25 2-1 0.25-1 0.25-1.5 3.25-1.5 3.25-3.5 1.5q-3.5 1.5-4.75 3t-3.25 5l-2 3.5-0.25-0.25q-0.25-0.25-2.75-0.5l-2.5-0.25-2-1.25q-2-1.25-3.5-3t-3.5-3.5-3-2.5l-1-0.75 1.75-3.5q1.75-3.5 4.25-8t2.75-5.75l0.25-1.25 4.5-5.5q4.5-5.5 7.75-8.75l3.25-3.25 0.75-1.75 0.75-1.75-0.5-1.75-0.5-1.75 0.25-0.5q0.25-0.5 3-5.25t10.25-16.5z"/>
  <path d="m422.5 349.25l3.5-0.25h5l1.25 5q1.25 5 0.75 8t-3.75 20-5.75 17.5l-2.5 0.5 0.5 1.25q0.5 1.25 2.25 2t1 6.25-2 7-3 7.25-2.5 7-2 5.5l-1.25 4.25-5 0.75-5 0.75-5.5-1.75-5.5-1.75 1.5-0.25q1.5-0.25 1.25-1.75t-1-3.25l-0.75-1.75-1-0.25-1-0.25v-3.5l0.75-0.75q0.75-0.75 2.25-8.25t1-8.5l-0.5-1-5.25-1.75-5.25-1.75 1-0.75 1-0.75 1 0.25q1 0.25 6-0.75l5-1 2.75-4.75q2.75-4.75 5.25-8.75l2.5-4 0.25-3q0.25-3 0-6t1.5-8.5l1.75-5.5h0.5q0.5 0 1.25-5l0.75-5 1.75-1.25q1.75-1.25 5.25-1.5z"/>
  <path d="m423.75 268l0.25-1h2l2.75 11q2.75 11 3 17.75t-0.75 7.25l-1 0.5 2 1.25q2 1.25 2.25 16.25t0 19l-0.25 4-2.5 1.75q-2.5 1.75-4 2.5l-1.5 0.75-3.5 0.25q-3.5 0.25-5.25 1.5l-1.75 1.25-0.75 5q-0.75 5-1.25 5h-0.5l-0.25-10q-0.25-10-0.5-14t1-6.5l1.25-2.5-4.25-3.75-4.25-3.75-0.5-0.25-0.5-0.25 3-1 3-1 0.25-1.5q0.25-1.5-1.5-2.5t-2-3.5-1.5-5.25l-1.25-2.75 0.5-0.5q0.5-0.5 0.5-1.75t2.5-4l2.5-2.75-2-10.25-2-10.25 0.25-0.5 0.25-0.5 1-1q1-1 2.75-1.75t7-1l5.25-0.25 0.25-1z"/>
  <path d="m413.75 226.5l0.25 0.5-0.25 1.5q-0.25 1.5 4.25 13.5t5.25 18.5l0.75 6.5-0.25 1-0.25 1-5.25 0.25q-5.25 0.25-7 1t-3 2.25l-1.25 1.5h-1l-3.5-12-3.5-12-1-0.5-1-0.5-0.25-2q-0.25-2 0-4.25l0.25-2.25-5-5q-5-5-7.75-11.25l-2.75-6.25-0.5-1q-0.5-1-1.25-1.75t-4-4.5-6-6.25l-2.75-2.5 0.25-2q0.25-2 2-3.75t3.25-5.5l1.5-3.75 1.5-0.5 1.5-0.5 2.25 1q2.25 1 4.25 3t7.25 7.25 11 12.5 8.75 11.75 3.25 5z"/>
  <path d="m355 168.5l3 0.5 4.25 3.5q4.25 3.5 8 9l3.75 5.5-1.5 3.75q-1.5 3.75-3.25 5.5t-2 3.75l-0.25 2-0.75 0.5-0.75 0.5-3.75-3.25q-3.75-3.25-6.5-5.5t-6.5-3.25l-3.75-1-1.5-1.25q-1.5-1.25-2-3l-0.5-1.75h-2l-0.5-2q-0.5-2-1.5-2.25t-4.5-3.25-9-4.5l-5.5-1.5-1.5 0.25-1.5 0.25-0.75-4.5q-0.75-4.5-3.5-9.5l-2.75-5 0.5-2.5 0.5-2.5 2-1 2-1 4-0.75q4-0.75 7.5-1l3.5-0.25 1.5 1.75q1.5 1.75 5 3.5t4 4.75-0.75 3.5l-1.25 0.5 1.75 0.75q1.75 0.75 4.75 2.25t6 4.75l3 3.25 3 0.5z"/>
  <path d="m236.75 153l1.25-2v2l1.5-0.25q1.5-0.25 4.5 0.25l3 0.5 5 3q5 3 8.5 4.25l3.5 1.25 0.5-1.25q0.5-1.25 7.75-1.5t9 1l1.75 1.25 9-4q9-4 11.75-3.75l2.75 0.25 0.75-1 0.75-1 2.75 5q2.75 5 3.5 9.5l0.75 4.5-3.5 2.25q-3.5 2.25-7.25 4l-3.75 1.75-5.75-0.5q-5.75-0.5-6 1l-0.25 1.5-7.25-0.25q-7.25-0.25-13.75 0.25l-6.5 0.5-2-0.25q-2-0.25-10.5-2.5t-11-3.25-3.5-2.25l-1-1.25h-3l1-0.75q1-0.75 0.75-3t1.75-7.75 3.25-7.5z"/>
  <path d="m224 144.25l8 0.75 3 3 3 3-1.25 2q-1.25 2-3.25 7.5t-1.75 7.75-0.75 3l-1 0.75v1l-2.5 0.75q-2.5 0.75-3.25-0.5t-2.5-0.5-3.75 1.25l-2 0.5-1.5 1.5q-1.5 1.5-4.5 4.25l-3 2.75-1.25 0.5q-1.25 0.5-3.5 3.25l-2.25 2.75-1.5 0.5q-1.5 0.5-5.5 1.5l-4 1-1.75 1.75q-1.75 1.75-4 4.5l-2.25 2.75-1.5 0.25-1.5 0.25-0.25-2.5q-0.25-2.5-3.25-5t-5.75-4-3.25-2.5l-0.5-1 2.5-2.25q2.5-2.25 6.25-4.5t7.5-6.5l3.75-4.25 0.5-0.25 0.5-0.25v0.5q0 0.5 3.75-1t5.75-3.5 5.5-5 4.75-2.25l1.25 0.75-0.25-1.25q-0.25-1.25 1.25-4.75t4.75-6.25l3.25-2.75 8 0.75z"/>
  <path d="m162.25 189.5l2.75-2.5 0.5 1q0.5 1 3.25 2.5t5.75 4 3.25 5l0.25 2.5-1.5 1.75q-1.5 1.75-6.25 6.5l-4.75 4.75-1.75 6-1.75 6-2.25 2q-2.25 2-6.75 6.5l-4.5 4.5-0.25 5-0.25 5h-2l-1.5 2.25q-1.5 2.25-2.75 4t-2.5 5.75l-1.25 4-1 0.25q-1 0.25-7.5 0l-6.5-0.25-1-1-1-1 3.25-12q3.25-12 5.5-18.5t1.75-6.5h-0.5l2.75-4q2.75-4 11-14.25t10.25-12.25 3.25-3.25 4-3.75z"/>
  <path d="m121 266.5l2-0.5 6.5 0.25q6.5 0.25 7.5 0l1-0.25 0.25 3.5q0.25 3.5-1.25 11.5t-1 13 0 6.5 0 2.5 0.25 2.75l-0.25 1.75 1.25 1.75q1.25 1.75 1.25 2.25t0.75 3l0.75 2.5-0.5 1.5-0.5 1.5-1 1.75q-1 1.75-2.75 3.5t-3.25 3.25l-1.5 1.5-1.25 7.25-1.25 7.25-6 1.25-6 1.25-1.5-0.75-1.5-0.75-1.25-6.75q-1.25-6.75-0.75-19.25t2.25-13.25l1.75-0.75-1.5-0.5q-1.5-0.5-1.25-2.25t3.5-18.75l3.25-17 2-0.5z"/>
  <path d="m119.75 350.5l6.25-1.5 2 0.75 2 0.75 0.75 2.25q0.75 2.25 3.5 20.75l2.75 18.5 2.25 1q2.25 1 5 5.25l2.75 4.25 3 1.25 3 1.25 1.5 0.75 1.5 0.75-3.75 2.25q-3.75 2.25-4.25 4.25l-0.5 2 1.5 3.5q1.5 3.5 3.75 10l2.25 6.5-1.25-1-1.25-1-1.25 0.5q-1.25 0.5-1.25 3.25t-7.5 5l-7.5 2.25-1.5-0.75-1.5-0.75-5.25-13.75q-5.25-13.75-6.25-17.75t0.75-7.25l1.75-3.25-1.5-0.5q-1.5-0.5-3.75-9.25t-3.75-22.75-1-15l0.5-1 6.25-1.5z"/>
  <path d="m153.75 434l1.25 1 1.25 1.5q1.25 1.5 8 11.75t7.75 12.75l1 2.5 0.5 0.25 0.5 0.25-0.5 3.5-0.5 3.5 3 1q3 1 5.75 6t8.75 14.5 6.25 12.5l0.25 3h-2l-1.75 3.5q-1.75 3.5-4.5 5l-2.75 1.5v1l-2-0.25q-2-0.25-3.75-0.5l-1.75-0.25-1.5-2.5q-1.5-2.5-4.25-4.25t-4-3-4.25-3.25l-3-2-0.25-0.5-0.25-0.5 0.25-1.5q0.25-1.5-0.75-3t-1.75-7.5l-0.75-6-2.25-0.5q-2.25-0.5-10.25-15t-9-17.5-1.25-5l-0.25-2 7.5-2.25q7.5-2.25 7.5-5t1.25-3.25l1.25-0.5 1.25 1z"/>
  <path d="m196 508h1l6 1.75q6 1.75 8.5 2.75t6.5 1h4l0.5-0.25 0.5-0.25 0.75 2.5 0.75 2.5 2.25 2.25q2.25 2.25 4.75 3.5t2.75 2.25l0.25 1 2.25-0.25q2.25-0.25 9.5 3l7.25 3.25 0.75-0.25q0.75-0.25 10.75 1.5l10 1.75h1l-0.75 5.5q-0.75 5.5-1 9.5l-0.25 4-1.5 0.5q-1.5 0.5-2.5 6l-1 5.5-5-0.25q-5-0.25-6.5 0l-1.5 0.25-0.25-2q-0.25-2-1-1.75t-5.25-2.75-5.75-2.75-6.25-2.75-5.25-4.75l-0.25-1.75h-2.5q-2.5 0-3 0.5t-6.5-3.5-11.5-5.75l-5.5-1.75h-2l-0.25-1q-0.25-1-1.5-2.25t-4-2.5l-2.75-1.25 0.25-2q0.25-2-2.5-4.5t-3.5-4l-0.75-1.5v-1l2.75-1.5q2.75-1.5 4.5-5l1.75-3.5h1z"/>
  <path d="m305.5 105.75l0.5-0.75h1l-0.25 5.5q-0.25 5.5-1 10t-3.25 4.75l-2.5 0.25 3 0.25q3 0.25 4.75 3.75t6 6.5l4.25 3-1.5 1.25q-1.5 1.25-2.5 3l-1 1.75-2 1-2 1-0.5 2.5-0.5 2.5-0.75 1-0.75 1-2.75-0.25q-2.75-0.25-11.75 3.75l-9 4-1.75-1.25q-1.75-1.25-9-1t-7.75 1.5l-0.5 1.25-3.5-1.25q-3.5-1.25-8.5-4.25l-5-3-3-0.5q-3-0.5-4.5-0.25l-1.5 0.25v-2l-3-3-3-3-1.5-3-1.5-3 1-0.25q1-0.25 5.25-5.5l4.25-5.25-0.5-6q-0.5-6-0.75-10.5l-0.25-4.5h1l4 1.25q4 1.25 20.5 2.25t29-1.5 13-3.25z"/>
  <path d="m285.75 21.5l1.25 2.5-1.25 1q-1.25 1-0.25 10.5l1 9.5h1.75q1.75 0 2.75 1.25t5.5 0.5l4.5-0.75 2 7.5q2 7.5 4.25 15t0.75 20-1.75 14.5l-0.25 2-0.25 0.5-0.25 0.5-0.25 0.25q-0.25 0.25-12.75 2.75t-29 1.5-20.5-2.25l-4-1.25-1.75-12q-1.75-12-0.75-19.5t4.75-17.5l3.75-10 5.25-1q5.25-1 7-2l1.75-1 0.75-5.5q0.75-5.5 0-10l-0.75-4.5 0.25-1 0.25-1 3.75-4.75q3.75-4.75 5-5.5t2-1.5l0.75-0.75 3.5 1.5q3.5 1.5 6.75 4.75t4.5 5.75z"/>
  <path d="m285.75 25l1.25-1 5 2.5q5 2.5 7.25 8t2 8.5l-0.25 3-4.5 0.75q-4.5 0.75-5.5-0.5t-2.75-1.25h-1.75l-1-9.5q-1-9.5 0.25-10.5z"/>
  <path d="m255 25.75l4-1.75 0.75 4.5q0.75 4.5 0 10l-0.75 5.5-1.75 1q-1.75 1-7 2l-5.25 1 0.25-7q0.25-7 3-10.25t6.75-5z"/>
 </g>
</svg>
